<svg width="386" height="386" viewBox="0 0 386 386" fill="none" xmlns="http://www.w3.org/2000/svg">
  <rect width="386" height="386" fill="url(#paint0_linear_3638_700)"/>
  <path d="M194.852 99.0679C148.218 97.2143 108.914 133.514 107.068 180.148C105.214 226.782 141.522 266.078 188.148 267.932C234.782 269.786 274.079 233.486 275.933 186.852C277.779 140.218 241.478 100.914 194.852 99.0679ZM230.519 222.858C229.469 224.712 227.422 225.639 225.429 225.361C224.819 225.276 224.209 225.075 223.637 224.751C212.469 218.394 200.297 214.255 187.461 212.447C174.625 210.64 161.781 211.266 149.292 214.301C146.581 214.957 143.855 213.297 143.198 210.586C142.542 207.875 144.202 205.149 146.913 204.492C160.645 201.156 174.764 200.468 188.867 202.453C202.97 204.438 216.346 208.987 228.634 215.977C231.052 217.359 231.901 220.433 230.527 222.858H230.519ZM241.625 200.677C239.903 203.859 235.918 205.048 232.736 203.326C219.668 196.259 205.518 191.617 190.682 189.532C175.845 187.447 160.97 188.01 146.457 191.2C145.67 191.37 144.889 191.401 144.133 191.293C141.499 190.922 139.244 188.96 138.641 186.203C137.861 182.666 140.101 179.167 143.638 178.387C159.68 174.858 176.123 174.232 192.512 176.534C208.893 178.835 224.533 183.963 238.976 191.779C242.166 193.502 243.348 197.479 241.625 200.669V200.677ZM253.936 175.668C252.314 178.789 248.939 180.403 245.649 179.94C244.761 179.816 243.888 179.538 243.046 179.105C227.831 171.189 211.442 165.96 194.335 163.558C177.227 161.156 160.027 161.666 143.221 165.08C138.85 165.968 134.594 163.141 133.706 158.777C132.818 154.406 135.645 150.15 140.008 149.262C158.622 145.485 177.652 144.922 196.582 147.579C215.512 150.235 233.647 156.028 250.499 164.794C254.454 166.848 255.991 171.722 253.936 175.676V175.668Z" fill="white"/>
  <defs>
    <linearGradient id="paint0_linear_3638_700" x1="386" y1="0" x2="0" y2="386" gradientUnits="userSpaceOnUse">
      <stop stop-color="#FF9E95"/>
      <stop offset="1" stop-color="#6900BA"/>
    </linearGradient>
  </defs>
</svg>
